<svg width="41" height="44" viewBox="0 0 41 44" fill="none" xmlns="http://www.w3.org/2000/svg">
<g clip-path="url(#clip0_2647_336)">
<path d="M7.61063 3.7125C7.85121 3.41065 8.14987 3.1683 8.48606 3.00215C8.82225 2.836 9.188 2.74997 9.55813 2.75H31.4419C31.812 2.74997 32.1777 2.836 32.5139 3.00215C32.8501 3.1683 33.1488 3.41065 33.3894 3.7125L40.0749 12.0835C40.6719 12.831 41 13.783 41 14.7675V15.4688C41.0001 16.8299 40.604 18.1572 39.8669 19.2649C39.1298 20.3727 38.0887 21.2056 36.8889 21.6473C35.6892 22.089 34.3908 22.1174 33.1753 21.7285C31.9598 21.3396 30.8879 20.5529 30.1094 19.4783C29.5409 20.2641 28.8123 20.8999 27.9795 21.337C27.1467 21.7741 26.2317 22.0009 25.3047 22C24.3776 22.0011 23.4626 21.7744 22.6297 21.3373C21.7969 20.9002 21.0684 20.2643 20.5 19.4783C19.9316 20.2643 19.2031 20.9002 18.3703 21.3373C17.5374 21.7744 16.6224 22.0011 15.6953 22C14.7682 22.0011 13.8532 21.7744 13.0204 21.3373C12.1875 20.9002 11.459 20.2643 10.8906 19.4783C10.1121 20.5529 9.0402 21.3396 7.82469 21.7285C6.60918 22.1174 5.31082 22.089 4.11108 21.6473C2.91134 21.2056 1.87017 20.3727 1.13309 19.2649C0.396013 18.1572 -0.000139909 16.8299 3.70654e-08 15.4688V14.7675C3.23068e-05 13.783 0.328145 12.831 0.925062 12.0835L7.61319 3.70975L7.61063 3.7125ZM12.1719 15.4688C12.1719 16.4716 12.5431 17.4334 13.2039 18.1425C13.8646 18.8516 14.7608 19.25 15.6953 19.25C16.6298 19.25 17.526 18.8516 18.1868 18.1425C18.8475 17.4334 19.2188 16.4716 19.2188 15.4688C19.2188 15.1041 19.3537 14.7543 19.594 14.4965C19.8343 14.2386 20.1602 14.0938 20.5 14.0938C20.8398 14.0938 21.1657 14.2386 21.406 14.4965C21.6463 14.7543 21.7812 15.1041 21.7812 15.4688C21.7812 16.4716 22.1525 17.4334 22.8132 18.1425C23.474 18.8516 24.3702 19.25 25.3047 19.25C26.2392 19.25 27.1354 18.8516 27.7961 18.1425C28.4569 17.4334 28.8281 16.4716 28.8281 15.4688C28.8281 15.1041 28.9631 14.7543 29.2034 14.4965C29.4437 14.2386 29.7696 14.0938 30.1094 14.0938C30.4492 14.0938 30.7751 14.2386 31.0154 14.4965C31.2556 14.7543 31.3906 15.1041 31.3906 15.4688C31.3906 16.4716 31.7618 17.4334 32.4226 18.1425C33.0834 18.8516 33.9796 19.25 34.9141 19.25C35.8485 19.25 36.7447 18.8516 37.4055 18.1425C38.0663 17.4334 38.4375 16.4716 38.4375 15.4688V14.7675C38.4375 14.4398 38.3285 14.1228 38.13 13.8738L31.4419 5.5H9.55813L2.87 13.8738C2.67153 14.1228 2.56248 14.4398 2.5625 14.7675V15.4688C2.5625 16.4716 2.93372 17.4334 3.59449 18.1425C4.25526 18.8516 5.15146 19.25 6.08594 19.25C7.02041 19.25 7.91661 18.8516 8.57738 18.1425C9.23816 17.4334 9.60938 16.4716 9.60938 15.4688C9.60938 15.1041 9.74436 14.7543 9.98464 14.4965C10.2249 14.2386 10.5508 14.0938 10.8906 14.0938C11.2304 14.0938 11.5563 14.2386 11.7966 14.4965C12.0369 14.7543 12.1719 15.1041 12.1719 15.4688ZM3.84375 23.375C4.18356 23.375 4.50945 23.5199 4.74973 23.7777C4.99001 24.0356 5.125 24.3853 5.125 24.75V41.25H7.6875V27.5C7.6875 26.7707 7.95748 26.0712 8.43804 25.5555C8.9186 25.0397 9.57038 24.75 10.25 24.75H17.9375C18.6171 24.75 19.2689 25.0397 19.7495 25.5555C20.23 26.0712 20.5 26.7707 20.5 27.5V41.25H35.875V24.75C35.875 24.3853 36.01 24.0356 36.2503 23.7777C36.4906 23.5199 36.8164 23.375 37.1562 23.375C37.4961 23.375 37.8219 23.5199 38.0622 23.7777C38.3025 24.0356 38.4375 24.3853 38.4375 24.75V41.25H39.7188C40.0586 41.25 40.3844 41.3949 40.6247 41.6527C40.865 41.9106 41 42.2603 41 42.625C41 42.9897 40.865 43.3394 40.6247 43.5973C40.3844 43.8551 40.0586 44 39.7188 44H1.28125C0.941441 44 0.61555 43.8551 0.37527 43.5973C0.134989 43.3394 3.70654e-08 42.9897 3.70654e-08 42.625C3.70654e-08 42.2603 0.134989 41.9106 0.37527 41.6527C0.61555 41.3949 0.941441 41.25 1.28125 41.25H2.5625V24.75C2.5625 24.3853 2.69749 24.0356 2.93777 23.7777C3.17805 23.5199 3.50394 23.375 3.84375 23.375ZM10.25 41.25H17.9375V27.5H10.25V41.25ZM23.0625 27.5C23.0625 26.7707 23.3325 26.0712 23.813 25.5555C24.2936 25.0397 24.9454 24.75 25.625 24.75H30.75C31.4296 24.75 32.0814 25.0397 32.562 25.5555C33.0425 26.0712 33.3125 26.7707 33.3125 27.5V35.75C33.3125 36.4793 33.0425 37.1788 32.562 37.6945C32.0814 38.2103 31.4296 38.5 30.75 38.5H25.625C24.9454 38.5 24.2936 38.2103 23.813 37.6945C23.3325 37.1788 23.0625 36.4793 23.0625 35.75V27.5ZM30.75 27.5H25.625V35.75H30.75V27.5Z" fill="#FF7A15"/>
</g>
<defs>
<clipPath id="clip0_2647_336">
<rect width="41" height="44" fill="white"/>
</clipPath>
</defs>
</svg>
