<svg width="230" height="56" viewBox="0 0 230 56" fill="none" xmlns="http://www.w3.org/2000/svg">
<g clip-path="url(#clip0_2647_335)">
<path d="M7.61063 9.7125C7.85121 9.41065 8.14987 9.1683 8.48606 9.00215C8.82225 8.836 9.188 8.74997 9.55813 8.75H31.4419C31.812 8.74997 32.1777 8.836 32.5139 9.00215C32.8501 9.1683 33.1488 9.41065 33.3894 9.7125L40.0749 18.0835C40.6719 18.831 41 19.783 41 20.7675V21.4688C41.0001 22.8299 40.604 24.1572 39.8669 25.2649C39.1298 26.3727 38.0887 27.2056 36.8889 27.6473C35.6892 28.089 34.3908 28.1174 33.1753 27.7285C31.9598 27.3396 30.8879 26.5529 30.1094 25.4783C29.5409 26.2641 28.8123 26.8999 27.9795 27.337C27.1467 27.7741 26.2317 28.0009 25.3047 28C24.3776 28.0011 23.4626 27.7744 22.6297 27.3373C21.7969 26.9002 21.0684 26.2643 20.5 25.4783C19.9316 26.2643 19.2031 26.9002 18.3703 27.3373C17.5374 27.7744 16.6224 28.0011 15.6953 28C14.7682 28.0011 13.8532 27.7744 13.0204 27.3373C12.1875 26.9002 11.459 26.2643 10.8906 25.4783C10.1121 26.5529 9.0402 27.3396 7.82469 27.7285C6.60918 28.1174 5.31082 28.089 4.11108 27.6473C2.91134 27.2056 1.87017 26.3727 1.13309 25.2649C0.396013 24.1572 -0.000139909 22.8299 3.70654e-08 21.4688V20.7675C3.23068e-05 19.783 0.328145 18.831 0.925062 18.0835L7.61319 9.70975L7.61063 9.7125ZM12.1719 21.4688C12.1719 22.4716 12.5431 23.4334 13.2039 24.1425C13.8646 24.8516 14.7608 25.25 15.6953 25.25C16.6298 25.25 17.526 24.8516 18.1868 24.1425C18.8475 23.4334 19.2188 22.4716 19.2188 21.4688C19.2188 21.1041 19.3537 20.7543 19.594 20.4965C19.8343 20.2386 20.1602 20.0938 20.5 20.0938C20.8398 20.0938 21.1657 20.2386 21.406 20.4965C21.6463 20.7543 21.7812 21.1041 21.7812 21.4688C21.7812 22.4716 22.1525 23.4334 22.8132 24.1425C23.474 24.8516 24.3702 25.25 25.3047 25.25C26.2392 25.25 27.1354 24.8516 27.7961 24.1425C28.4569 23.4334 28.8281 22.4716 28.8281 21.4688C28.8281 21.1041 28.9631 20.7543 29.2034 20.4965C29.4437 20.2386 29.7696 20.0938 30.1094 20.0938C30.4492 20.0938 30.7751 20.2386 31.0154 20.4965C31.2556 20.7543 31.3906 21.1041 31.3906 21.4688C31.3906 22.4716 31.7618 23.4334 32.4226 24.1425C33.0834 24.8516 33.9796 25.25 34.9141 25.25C35.8485 25.25 36.7447 24.8516 37.4055 24.1425C38.0663 23.4334 38.4375 22.4716 38.4375 21.4688V20.7675C38.4375 20.4398 38.3285 20.1228 38.13 19.8738L31.4419 11.5H9.55813L2.87 19.8738C2.67153 20.1228 2.56248 20.4398 2.5625 20.7675V21.4688C2.5625 22.4716 2.93372 23.4334 3.59449 24.1425C4.25526 24.8516 5.15146 25.25 6.08594 25.25C7.02041 25.25 7.91661 24.8516 8.57738 24.1425C9.23816 23.4334 9.60938 22.4716 9.60938 21.4688C9.60938 21.1041 9.74436 20.7543 9.98464 20.4965C10.2249 20.2386 10.5508 20.0938 10.8906 20.0938C11.2304 20.0938 11.5563 20.2386 11.7966 20.4965C12.0369 20.7543 12.1719 21.1041 12.1719 21.4688ZM3.84375 29.375C4.18356 29.375 4.50945 29.5199 4.74973 29.7777C4.99001 30.0356 5.125 30.3853 5.125 30.75V47.25H7.6875V33.5C7.6875 32.7707 7.95748 32.0712 8.43804 31.5555C8.9186 31.0397 9.57038 30.75 10.25 30.75H17.9375C18.6171 30.75 19.2689 31.0397 19.7495 31.5555C20.23 32.0712 20.5 32.7707 20.5 33.5V47.25H35.875V30.75C35.875 30.3853 36.01 30.0356 36.2503 29.7777C36.4906 29.5199 36.8164 29.375 37.1562 29.375C37.4961 29.375 37.8219 29.5199 38.0622 29.7777C38.3025 30.0356 38.4375 30.3853 38.4375 30.75V47.25H39.7188C40.0586 47.25 40.3844 47.3949 40.6247 47.6527C40.865 47.9106 41 48.2603 41 48.625C41 48.9897 40.865 49.3394 40.6247 49.5973C40.3844 49.8551 40.0586 50 39.7188 50H1.28125C0.941441 50 0.61555 49.8551 0.37527 49.5973C0.134989 49.3394 3.70654e-08 48.9897 3.70654e-08 48.625C3.70654e-08 48.2603 0.134989 47.9106 0.37527 47.6527C0.61555 47.3949 0.941441 47.25 1.28125 47.25H2.5625V30.75C2.5625 30.3853 2.69749 30.0356 2.93777 29.7777C3.17805 29.5199 3.50394 29.375 3.84375 29.375ZM10.25 47.25H17.9375V33.5H10.25V47.25ZM23.0625 33.5C23.0625 32.7707 23.3325 32.0712 23.813 31.5555C24.2936 31.0397 24.9454 30.75 25.625 30.75H30.75C31.4296 30.75 32.0814 31.0397 32.562 31.5555C33.0425 32.0712 33.3125 32.7707 33.3125 33.5V41.75C33.3125 42.4793 33.0425 43.1788 32.562 43.6945C32.0814 44.2103 31.4296 44.5 30.75 44.5H25.625C24.9454 44.5 24.2936 44.2103 23.813 43.6945C23.3325 43.1788 23.0625 42.4793 23.0625 41.75V33.5ZM30.75 33.5H25.625V41.75H30.75V33.5Z" fill="#FF7A15"/>
</g>
<path d="M54.0123 51C58.1574 51 60.5508 47.7857 60.5508 43.9286C60.5508 40.8132 58.5216 39 55.5212 39C51.5495 39 49 42.3132 49 46.0385C49 49.1868 50.9945 51 54.0123 51ZM54.2204 48.5275C52.885 48.5275 51.8964 47.6868 51.8964 45.8736C51.8964 43.5989 53.3185 41.456 55.261 41.456C56.6485 41.456 57.6544 42.2637 57.6544 44.0769C57.6544 46.533 56.2496 48.5275 54.2204 48.5275Z" fill="#8E8E8E" stroke="#8E8E8E" stroke-width="0.5" stroke-miterlimit="2"/>
<path d="M62.9052 43.1552L61.5132 55H63.9696L64.4118 51.1897L64.4773 51.1724C64.9686 51.569 65.5909 51.7414 66.3442 51.7414C68.4895 51.7414 70.1763 49.4483 70.1763 46.4483C70.1763 44.5345 69.3083 43 67.6379 43C66.6226 43 65.8202 43.5517 65.2306 44.4483L65.2142 44.4138L65.3616 43.1552H62.9052ZM65.6892 49.4483C65.2634 49.4483 64.854 49.2759 64.6083 48.931L64.6247 48.7069C64.9195 46.5 65.9184 45.2931 66.8191 45.2931C67.3759 45.2931 67.7198 45.8966 67.7198 46.7069C67.7198 48.1034 67.0156 49.4483 65.6892 49.4483Z" fill="#8E8E8E" stroke="#8E8E8E" stroke-width="0.5" stroke-miterlimit="2"/>
<path d="M73.6877 51C74.5127 51 75.3194 50.8197 76.0895 50.4426L75.6495 48.5246C75.3011 48.6885 74.9894 48.7869 74.7511 48.7869C74.4577 48.7869 74.2744 48.5738 74.3477 48.1148L74.7877 44.8197H76.6396L76.9146 42.8361H75.0628L75.4478 40L72.6426 40.4918L72.2942 42.8361H71.4142L71.1392 44.8197H72.0192L71.5425 48.4426C71.2858 50.2951 72.2942 51 73.6877 51Z" fill="#8E8E8E" stroke="#8E8E8E" stroke-width="0.5" stroke-miterlimit="2"/>
<path d="M79.9079 41.876C80.9839 41.876 81.7274 41.2479 81.7274 40.405C81.7274 39.595 81.0231 39 79.9666 39C78.8906 39 78.1471 39.6116 78.1471 40.4545C78.1471 41.2645 78.871 41.876 79.9079 41.876ZM78.0884 42.9174L76.9146 51H79.8492L81.0231 42.9174H78.0884Z" fill="#8E8E8E" stroke="#8E8E8E" stroke-width="0.5" stroke-miterlimit="2"/>
<path d="M82.8072 43.1446L81.7271 51H84.4275L84.8416 47.9317C85.0936 46.1004 86.2638 45.1526 86.8579 45.1526C87.47 45.1526 87.506 45.6506 87.344 46.743L86.7139 51H89.3963L89.8284 48.1084C90.1164 46.1165 91.2686 45.1526 91.8807 45.1526C92.4388 45.1526 92.5288 45.6506 92.3668 46.743L91.7367 51H94.4191L95.1212 46.2932C95.4453 44.0281 94.8152 43 93.0689 43C91.8447 43 90.8725 43.4016 90.1164 44.1888H90.0264C89.7744 43.3695 89.1262 43 88.1181 43C87.0919 43 86.1738 43.4016 85.4357 44.1406L85.3636 44.1245L85.5077 43.1446H82.8072Z" fill="#8E8E8E" stroke="#8E8E8E" stroke-width="0.5" stroke-miterlimit="2"/>
<path d="M98.5602 41.876C99.421 41.876 100.016 41.2479 100.016 40.405C100.016 39.595 99.4524 39 98.6072 39C97.7463 39 97.1516 39.6116 97.1516 40.4545C97.1516 41.2645 97.7307 41.876 98.5602 41.876ZM97.1046 42.9174L96.1655 51H98.5133L99.4524 42.9174H97.1046Z" fill="#8E8E8E" stroke="#8E8E8E" stroke-width="0.5" stroke-miterlimit="2"/>
<path d="M106.393 52L107.002 49.9458C105.922 49.6151 104.755 49.4758 103.657 49.4236V49.3888L107.525 44.7408L107.717 43H101.358L101.114 45.0716H103.988V45.1238L100.208 49.7718L100.016 51.5126C102.211 51.5126 104.424 51.53 106.393 52Z" fill="#8E8E8E" stroke="#8E8E8E" stroke-width="0.5" stroke-miterlimit="2"/>
<path d="M111.412 51C112.358 51 113.2 50.5266 113.819 49.7061L113.87 49.7219L113.715 50.858H116.311L117.342 43.142H114.747L114.678 43.6785H114.626C114.18 43.2525 113.526 43 112.65 43C110.45 43 108.679 45.0986 108.679 47.8442C108.679 49.6272 109.607 51 111.412 51ZM112.237 48.9014C111.653 48.9014 111.275 48.4122 111.275 47.6706C111.275 46.5187 111.962 45.1144 113.097 45.1144C113.63 45.1144 114.111 45.3037 114.489 45.6667L114.455 45.8876C114.162 47.8284 113.131 48.9014 112.237 48.9014Z" fill="#8E8E8E" stroke="#8E8E8E" stroke-width="0.5" stroke-miterlimit="2"/>
<path d="M119.308 43.1446L118.305 51H120.812L121.197 47.9317C121.431 46.1004 122.517 45.1526 123.069 45.1526C123.637 45.1526 123.671 45.6506 123.52 46.743L122.935 51H125.426L125.827 48.1084C126.095 46.1165 127.165 45.1526 127.733 45.1526C128.251 45.1526 128.335 45.6506 128.184 46.743L127.599 51H130.09L130.742 46.2932C131.043 44.0281 130.458 43 128.836 43C127.7 43 126.797 43.4016 126.095 44.1888H126.011C125.777 43.3695 125.175 43 124.239 43C123.286 43 122.434 43.4016 121.748 44.1406L121.682 44.1245L121.815 43.1446H119.308Z" fill="#8E8E8E" stroke="#8E8E8E" stroke-width="0.5" stroke-miterlimit="2"/>
<path d="M135.525 51C138.907 51 140.444 48.8067 140.444 46.2978C140.444 44.1992 138.943 43 136.664 43C133.553 43 131.781 45.2091 131.781 47.6864C131.781 49.8008 133.282 51 135.525 51ZM135.723 48.8856C135.145 48.8856 134.53 48.4753 134.53 47.5602C134.53 46.3767 135.253 45.1144 136.447 45.1144C136.935 45.1144 137.695 45.3511 137.695 46.4556C137.695 47.7179 136.917 48.8856 135.723 48.8856Z" fill="#8E8E8E" stroke="#8E8E8E" stroke-width="0.5" stroke-miterlimit="2"/>
<path d="M144.608 51C146.602 51 147.859 50.0059 147.859 48.4911C147.859 47.2761 146.988 46.7239 145.714 46.1243C144.96 45.7771 144.557 45.5247 144.557 45.2722C144.557 44.9724 144.876 44.7988 145.211 44.7988C145.597 44.8146 146.166 45.0039 146.619 45.5878L148.144 44.2308C147.407 43.3945 146.3 43 145.194 43C143.501 43 142.161 44.0256 142.161 45.572C142.161 46.7081 142.915 47.3393 144.155 47.9231C145.094 48.3807 145.429 48.5069 145.429 48.7909C145.429 49.0592 145.11 49.217 144.675 49.217C144.038 49.217 143.3 48.854 142.814 48.3018L141.406 49.6746C142.127 50.5266 143.434 51 144.608 51Z" fill="#8E8E8E" stroke="#8E8E8E" stroke-width="0.5" stroke-miterlimit="2"/>
<path d="M154.543 51C155.368 51 156.175 50.8197 156.945 50.4426L156.505 48.5246C156.157 48.6885 155.845 48.7869 155.607 48.7869C155.313 48.7869 155.13 48.5738 155.203 48.1148L155.643 44.8197H157.495L157.77 42.8361H155.918L156.303 40L153.498 40.4918L153.15 42.8361H152.27L151.995 44.8197H152.875L152.398 48.4426C152.141 50.2951 153.15 51 154.543 51Z" fill="#8E8E8E" stroke="#8E8E8E" stroke-width="0.5" stroke-miterlimit="2"/>
<path d="M160.119 51C161.226 51 162.097 50.4859 162.75 49.6988H162.786L162.677 50.8554H165.344L166.433 43H163.712L163.222 46.5984C163.058 47.755 161.988 48.8474 161.226 48.8474C160.591 48.8474 160.446 48.4297 160.645 47.1606L161.317 43H158.613L157.851 47.8835C157.47 50.2129 158.468 51 160.119 51Z" fill="#8E8E8E" stroke="#8E8E8E" stroke-width="0.5" stroke-miterlimit="2"/>
<path d="M171.377 43.1446L170.283 51H172.972L173.366 48.0924C173.653 46.1325 174.8 45.1526 175.606 45.1526C176.18 45.1526 176.288 45.6506 176.126 46.743L175.499 51H178.169L178.868 46.1968C179.191 43.996 178.51 43 176.843 43C175.696 43 174.728 43.4337 173.94 44.253L173.904 44.2369L174.047 43.1446H171.377Z" fill="#8E8E8E" stroke="#8E8E8E" stroke-width="0.5" stroke-miterlimit="2"/>
<path d="M187.61 45.1302C187.627 43.6785 186.052 43 184.653 43C181.733 43 179.909 45.146 179.909 47.7653C179.892 49.7692 181.343 51 183.52 51C185.22 51 186.37 50.432 187.291 49.3116L185.308 48.2702C184.83 48.8383 184.317 49.0434 183.733 49.0434C183.22 49.0434 182.653 48.7594 182.494 48.0651C185.043 47.8284 187.574 47.0868 187.61 45.1302ZM185.061 45.4615C185.043 46.2189 183.875 46.5187 182.582 46.645C182.883 45.572 183.662 44.9724 184.423 44.9724C184.83 44.9724 185.078 45.146 185.061 45.4615Z" fill="#8E8E8E" stroke="#8E8E8E" stroke-width="0.5" stroke-miterlimit="2"/>
<path d="M197.235 43.1532H194.707L194.657 43.6809L194.606 43.6979C194.168 43.2383 193.527 43 192.685 43C190.527 43 188.808 45.2638 188.808 48.1404C188.808 49.8766 189.702 51.3745 191.488 51.3745C192.398 51.3745 193.224 50.8468 193.831 49.9787L193.881 49.9957C193.578 52.4128 192.735 52.8383 191.471 52.8383C190.746 52.8383 190.055 52.617 189.364 52.1915L188.572 54.183C189.533 54.7787 190.527 55 191.572 55C193.797 55 195.904 54.1149 196.359 50.4043L197.235 43.1532ZM194.454 45.8426L194.421 46.1149C194.134 47.9532 193.157 49.1106 192.28 49.1106C191.707 49.1106 191.353 48.6851 191.353 47.8851C191.353 46.7957 192.011 45.2809 193.123 45.2809C193.645 45.2809 194.084 45.4681 194.454 45.8426Z" fill="#8E8E8E" stroke="#8E8E8E" stroke-width="0.5" stroke-miterlimit="2"/>
<path d="M201.942 51C205.324 51 206.861 48.8067 206.861 46.2978C206.861 44.1992 205.36 43 203.081 43C199.97 43 198.198 45.2091 198.198 47.6864C198.198 49.8008 199.699 51 201.942 51ZM202.14 48.8856C201.562 48.8856 200.947 48.4753 200.947 47.5602C200.947 46.3767 201.67 45.1144 202.864 45.1144C203.352 45.1144 204.112 45.3511 204.112 46.4556C204.112 47.7179 203.334 48.8856 202.14 48.8856Z" fill="#8E8E8E" stroke="#8E8E8E" stroke-width="0.5" stroke-miterlimit="2"/>
<path d="M211.382 51C212.998 51 214.149 50.4162 215.026 49.3116L213.032 48.144C212.533 48.6963 212.052 48.8856 211.571 48.8856C210.866 48.8856 210.419 48.3807 210.419 47.5444C210.419 46.2505 211.21 45.0986 212.362 45.0986C212.843 45.0986 213.273 45.288 213.548 45.7771L215.524 44.4201C214.837 43.5049 213.788 43 212.293 43C209.388 43 207.824 45.2722 207.824 47.6391C207.824 49.8323 209.199 51 211.382 51Z" fill="#8E8E8E" stroke="#8E8E8E" stroke-width="0.5" stroke-miterlimit="2"/>
<path d="M218.517 41.876C219.593 41.876 220.337 41.2479 220.337 40.405C220.337 39.595 219.632 39 218.576 39C217.5 39 216.756 39.6116 216.756 40.4545C216.756 41.2645 217.48 41.876 218.517 41.876ZM216.698 42.9174L215.524 51H218.459L219.632 42.9174H216.698Z" fill="#8E8E8E" stroke="#8E8E8E" stroke-width="0.5" stroke-miterlimit="2"/>
<path d="M224.081 51C227.463 51 229 48.8067 229 46.2978C229 44.1992 227.499 43 225.22 43C222.109 43 220.337 45.2091 220.337 47.6864C220.337 49.8008 221.838 51 224.081 51ZM224.28 48.8856C223.701 48.8856 223.086 48.4753 223.086 47.5602C223.086 46.3767 223.809 45.1144 225.003 45.1144C225.491 45.1144 226.251 45.3511 226.251 46.4556C226.251 47.7179 225.473 48.8856 224.28 48.8856Z" fill="#8E8E8E" stroke="#8E8E8E" stroke-width="0.5" stroke-miterlimit="2"/>
<path d="M61.664 30.264C59.7653 30.968 57.9947 31.32 56.352 31.32C54.496 31.32 52.992 30.8293 51.84 29.848C50.688 28.8667 50.112 27.2987 50.112 25.144V14.872C50.112 13.2507 50.336 12.024 50.784 11.192C51.2533 10.36 51.9573 9.656 52.896 9.08C53.8347 8.54667 54.9867 8.28 56.352 8.28C58.016 8.28 59.52 8.632 60.864 9.336L59.872 12.536C58.8907 12.1733 57.8133 11.992 56.64 11.992C55.744 11.992 55.0187 12.2373 54.464 12.728C53.9093 13.2187 53.632 13.8373 53.632 14.584V25.08C53.632 26.872 54.6347 27.768 56.64 27.768C57.28 27.768 57.92 27.704 58.56 27.576C59.2 27.4267 60.0533 27.2133 61.12 26.936L61.664 30.264ZM79.126 25.08C79.126 27.2347 78.4647 28.824 77.142 29.848C75.8407 30.8507 74.2727 31.352 72.438 31.352C71.286 31.352 70.198 31.1493 69.174 30.744C68.15 30.3173 67.3073 29.6347 66.646 28.696C66.006 27.7573 65.686 26.552 65.686 25.08V14.776C65.686 12.5787 66.2833 10.9147 67.478 9.784C68.694 8.65333 70.358 8.088 72.47 8.088C74.582 8.088 76.214 8.68533 77.366 9.88C78.5393 11.0747 79.126 12.7173 79.126 14.808V25.08ZM75.606 15.96C75.606 15.064 75.5313 14.328 75.382 13.752C75.2327 13.176 74.9233 12.728 74.454 12.408C73.9847 12.0667 73.302 11.896 72.406 11.896C71.51 11.896 70.8273 12.056 70.358 12.376C69.8887 12.696 69.5793 13.144 69.43 13.72C69.2807 14.2747 69.206 15.0107 69.206 15.928V24.472C69.206 25.496 69.462 26.3067 69.974 26.904C70.5073 27.48 71.318 27.768 72.406 27.768C73.4087 27.768 74.1873 27.4587 74.742 26.84C75.318 26.2213 75.606 25.4107 75.606 24.408V15.96ZM85.6485 8.568H91.6645C94.0752 8.568 95.9098 9.22933 97.1685 10.552C98.4485 11.8747 99.0885 13.6347 99.0885 15.832V24.6C99.0885 28.8667 96.8272 31 92.3045 31H85.6485V8.568ZM95.5685 15.512C95.5685 14.3387 95.2698 13.4853 94.6725 12.952C94.0965 12.3973 93.2005 12.12 91.9845 12.12H89.1685V27.768H91.7925C92.9445 27.768 93.8618 27.5973 94.5445 27.256C95.2272 26.8933 95.5685 26.1147 95.5685 24.92V15.512ZM104.475 8.6H115.163V12.12H107.995V17.784H112.379L111.387 21.144H107.995V27.8H115.099V31H104.475V8.6ZM134.902 19.16L131.158 31H128.47L124.79 19.192V31H121.27V8.6H124.79L129.814 23.416L134.902 8.6H138.422V31H134.902V19.16ZM153.952 25.144H148.8L147.552 31H143.584L148.832 8.6H153.792L159.456 31H155.264L153.952 25.144ZM149.632 21.4H153.12L151.296 14.488L149.632 21.4ZM166.667 24.76C166.774 25.6987 167.158 26.456 167.819 27.032C168.481 27.608 169.345 27.896 170.411 27.896C171.307 27.896 172.033 27.7467 172.587 27.448C173.163 27.1493 173.579 26.7867 173.835 26.36C174.091 25.9333 174.219 25.5173 174.219 25.112C174.219 24.1733 173.985 23.3947 173.515 22.776C173.067 22.136 172.502 21.6347 171.819 21.272C171.158 20.888 170.251 20.4507 169.099 19.96C167.841 19.4267 166.838 18.9467 166.091 18.52C165.366 18.072 164.737 17.4747 164.203 16.728C163.691 15.96 163.435 14.9893 163.435 13.816C163.435 12.8773 163.702 11.992 164.235 11.16C164.769 10.3067 165.579 9.61333 166.667 9.08C167.755 8.54667 169.089 8.28 170.667 8.28C171.713 8.28 172.577 8.35467 173.259 8.504C173.942 8.65333 174.635 8.89867 175.339 9.24L174.219 12.568C173.451 12.312 172.822 12.1307 172.331 12.024C171.862 11.9173 171.318 11.864 170.699 11.864C169.483 11.864 168.587 12.0773 168.011 12.504C167.435 12.9307 167.179 13.4747 167.243 14.136C167.307 14.6693 167.627 15.128 168.203 15.512C168.801 15.896 169.718 16.3653 170.955 16.92C172.406 17.56 173.611 18.168 174.571 18.744C175.531 19.32 176.353 20.1093 177.035 21.112C177.739 22.1147 178.091 23.3413 178.091 24.792C178.091 26.6907 177.462 28.2587 176.203 29.496C174.945 30.7333 173.025 31.352 170.443 31.352C168.865 31.352 167.51 31.064 166.379 30.488C165.27 29.8907 164.417 29.1333 163.819 28.216C163.243 27.2773 162.934 26.3067 162.891 25.304L166.667 24.76ZM184.861 12.152H180.253V8.6H193.117V12.152H188.381V31H184.861V12.152ZM197.544 8.6H208.232V12.12H201.064V17.784H205.448L204.456 21.144H201.064V27.8H208.168V31H197.544V8.6ZM222.53 24.76H217.858V31H214.338V8.6H221.922C223.33 8.6 224.504 8.952 225.442 9.656C226.381 10.3387 227.074 11.256 227.522 12.408C227.992 13.56 228.226 14.8293 228.226 16.216C228.226 17.2613 228.184 18.168 228.098 18.936C228.013 19.704 227.789 20.504 227.426 21.336C227.085 22.168 226.53 22.9147 225.762 23.576L228.258 31H224.674L222.53 24.76ZM221.09 21.4C222.136 21.4 222.904 21.1333 223.394 20.6C223.906 20.0453 224.216 19.416 224.322 18.712C224.45 18.008 224.514 17.176 224.514 16.216C224.514 15.0853 224.354 14.232 224.034 13.656C223.714 13.0587 223.266 12.664 222.69 12.472C222.114 12.2587 221.368 12.152 220.45 12.152H217.858V21.4H221.09Z" fill="#4334B6"/>
<defs>
<clipPath id="clip0_2647_335">
<rect width="41" height="44" fill="white" transform="translate(0 6)"/>
</clipPath>
</defs>
</svg>
